<svg xmlns="http://www.w3.org/2000/svg" width="1200" height="700" viewBox="0 0 1200 700"><style>.bg{fill:#f3f5f4}.side{fill:#173642}.nav{font:15px sans-serif;fill:#dce8e8}.brand{font:bold 24px sans-serif;fill:white}.h1{font:bold 28px sans-serif;fill:#173642}.sub{font:14px sans-serif;fill:#64737a}.card{fill:white;stroke:#dce3e4}.small{font:11px sans-serif;fill:#6c7d84}.title{font:bold 18px sans-serif;fill:#203942}.muted{font:12px sans-serif;fill:#728087}.metric{font:bold 30px sans-serif;fill:#1a5963}</style><rect width="1200" height="700" class="bg"/><rect width="270" height="700" class="side"/><text x="42" y="70" class="brand">ZH 知华科技</text><text x="42" y="105" class="nav">FINOPS ENTERPRISE</text><text x="48" y="190" class="nav">云账号管理</text><text x="48" y="230" class="nav">账单归集</text><text x="48" y="270" class="nav">成本分摊</text><text x="48" y="310" class="nav">标签治理</text><text x="48" y="350" class="nav">预算管理</text><text x="48" y="390" class="nav">费用异常</text><text x="320" y="70" class="h1">云成本与 FinOps 管理平台 · 运营总览</text><text x="320" y="102" class="sub">让云成本看得见、分得清、控得住，并持续优化资源效率</text><g transform="translate(320,135)"><rect width="780" height="80" rx="12" class="card"/><text x="24" y="30" class="small">企业业务控制中心</text><text x="24" y="62" class="metric">模块 9 · 状态流转 · 风险 · SLA · 审计</text></g><g transform="translate(320,250)"><rect width="240" height="120" rx="12" class="card"/><text x="20" y="38" class="small">ACCOUNT</text><text x="20" y="70" class="title">云账号管理</text><text x="20" y="96" class="muted">统一多云账号、组织和成本中心关系</text></g><g transform="translate(590,250)"><rect width="240" height="120" rx="12" class="card"/><text x="20" y="38" class="small">BILLING</text><text x="20" y="70" class="title">账单归集</text><text x="20" y="96" class="muted">采集账单明细、价格和使用量</text></g><g transform="translate(860,250)"><rect width="240" height="120" rx="12" class="card"/><text x="20" y="38" class="small">ALLOCATION</text><text x="20" y="70" class="title">成本分摊</text><text x="20" y="96" class="muted">按标签、组织、产品和规则分摊成本</text></g><g transform="translate(320,400)"><rect width="240" height="120" rx="12" class="card"/><text x="20" y="38" class="small">TAGGING</text><text x="20" y="70" class="title">标签治理</text><text x="20" y="96" class="muted">检查标签覆盖、规范和责任归属</text></g><g transform="translate(590,400)"><rect width="240" height="120" rx="12" class="card"/><text x="20" y="38" class="small">BUDGET</text><text x="20" y="70" class="title">预算管理</text><text x="20" y="96" class="muted">管理预算、预测、阈值和通知</text></g><g transform="translate(860,400)"><rect width="240" height="120" rx="12" class="card"/><text x="20" y="38" class="small">ANOMALY</text><text x="20" y="70" class="title">费用异常</text><text x="20" y="96" class="muted">识别突增、闲置和异常购买</text></g><text x="320" y="655" class="sub">界面示意 · 上海如静知华信息科技有限公司 · https://www.zhuatech.cn/</text></svg>